# xmcd
#
# Track frame offsets: 
#        150
#        11195
#        24511
#        46502
#        61683
#        77788
#        98777
#        117571
#        135282
#        153744
#
# Disc length: 2301 seconds
#
# Revision: 0
# Processed by: cddbd v1.5.2PL0 Copyright (c) Steve Scherf et al.
# Submitted via: ExactAudioCopy v1.0b1
#
DISCID=7408fb0a
DTITLE=Dawson James - Plaid Shirt Livin'
DYEAR=2011
DGENRE=Rock
TTITLE0=Plaid Shirt Livin'
TTITLE1=Bury My Body
TTITLE2=She Was Gone
TTITLE3=Johnny B. Goode
TTITLE4=All I See
TTITLE5=I'm Still Alive
TTITLE6=Be Free
TTITLE7=Rock Bottom
TTITLE8=Sugar Creek Mountain
TTITLE9=Night Hawk
EXTD=
EXTT0=
EXTT1=
EXTT2=
EXTT3=
EXTT4=
EXTT5=
EXTT6=
EXTT7=
EXTT8=
EXTT9=
PLAYORDER=
